{
  "asset": {
    "generator": "Sailor Physics Test Scene Generator",
    "version": "2.0"
  },
  "scene": 0,
  "scenes": [
    {
      "nodes": [
        0
      ]
    }
  ],
  "nodes": [
    {
      "mesh": 0,
      "name": "PhysicsSphere"
    }
  ],
  "meshes": [
    {
      "name": "PhysicsSphere",
      "primitives": [
        {
          "attributes": {
            "POSITION": 0,
            "NORMAL": 1
          },
          "indices": 2,
          "material": 0,
          "mode": 4
        }
      ]
    }
  ],
  "materials": [
    {
      "name": "PhysicsSphere",
      "pbrMetallicRoughness": {
        "baseColorFactor": [
          0.25,
          0.55,
          1.0,
          1.0
        ],
        "metallicFactor": 0.0,
        "roughnessFactor": 0.75
      }
    }
  ],
  "buffers": [
    {
      "byteLength": 11256,
      "uri": "data:application/octet-stream;base64,"
    }
  ],
  "bufferViews": [
    {
      "buffer": 0,
      "byteOffset": 0,
      "byteLength": 3900,
      "target": 34962
    },
    {
      "buffer": 0,
      "byteOffset": 3900,
      "byteLength": 3900,
      "target": 34962
    },
    {
      "buffer": 0,
      "byteOffset": 7800,
      "byteLength": 3456,
      "target": 34963
    }
  ],
  "accessors": [
    {
      "bufferView": 0,
      "byteOffset": 0,
      "componentType": 5126,
      "count": 325,
      "type": "VEC3",
      "min": [
        -0.5,
        -0.5,
        -0.5
      ],
      "max": [
        0.5,
        0.5,
        0.5
      ]
    },
    {
      "bufferView": 1,
      "byteOffset": 0,
      "componentType": 5126,
      "count": 325,
      "type": "VEC3",
      "min": [
        -1.0,
        -1.0,
        -1.0
      ],
      "max": [
        1.0,
        1.0,
        1.0
      ]
    },
    {
      "bufferView": 2,
      "byteOffset": 0,
      "componentType": 5123,
      "count": 1728,
      "type": "SCALAR",
      "min": [
        0
      ],
      "max": [
        324
      ]
    }
  ]
}
